<mxfile host="app.diagrams.net" modified="2021-10-17T13:58:15.023Z" agent="5.0 (Macintosh)" etag="l9-CgE3MpGL_70K-IGtR" version="15.5.4" type="github">
  <diagram id="1PefpzOsjJlP9P1HeEp4" name="Page-1">
    <mxGraphModel dx="1113" dy="616" grid="1" gridSize="10" guides="1" tooltips="1" connect="1" arrows="1" fold="1" page="1" pageScale="1" pageWidth="850" pageHeight="1100" math="0" shadow="0">
      <root>
        <mxCell id="0" />
        <mxCell id="1" parent="0" />
        <mxCell id="yy6jho2rbqKbmonwyIIV-10" style="edgeStyle=orthogonalEdgeStyle;rounded=0;orthogonalLoop=1;jettySize=auto;html=1;entryX=0.5;entryY=0;entryDx=0;entryDy=0;fillColor=#d5e8d4;strokeColor=#82b366;" edge="1" parent="1" source="yy6jho2rbqKbmonwyIIV-1" target="yy6jho2rbqKbmonwyIIV-2">
          <mxGeometry relative="1" as="geometry" />
        </mxCell>
        <mxCell id="yy6jho2rbqKbmonwyIIV-11" value="PIN 8" style="edgeLabel;html=1;align=center;verticalAlign=middle;resizable=0;points=[];" vertex="1" connectable="0" parent="yy6jho2rbqKbmonwyIIV-10">
          <mxGeometry x="0.1857" y="3" relative="1" as="geometry">
            <mxPoint x="-3" y="-73" as="offset" />
          </mxGeometry>
        </mxCell>
        <mxCell id="yy6jho2rbqKbmonwyIIV-17" style="edgeStyle=orthogonalEdgeStyle;rounded=0;orthogonalLoop=1;jettySize=auto;html=1;entryX=0.25;entryY=0;entryDx=0;entryDy=0;shape=link;" edge="1" parent="1" source="yy6jho2rbqKbmonwyIIV-1" target="yy6jho2rbqKbmonwyIIV-2">
          <mxGeometry relative="1" as="geometry">
            <Array as="points">
              <mxPoint x="340" y="280" />
            </Array>
          </mxGeometry>
        </mxCell>
        <mxCell id="yy6jho2rbqKbmonwyIIV-18" value="GND" style="edgeLabel;html=1;align=center;verticalAlign=middle;resizable=0;points=[];" vertex="1" connectable="0" parent="yy6jho2rbqKbmonwyIIV-17">
          <mxGeometry x="0.5843" y="-2" relative="1" as="geometry">
            <mxPoint y="-59" as="offset" />
          </mxGeometry>
        </mxCell>
        <mxCell id="yy6jho2rbqKbmonwyIIV-19" style="edgeStyle=orthogonalEdgeStyle;rounded=0;orthogonalLoop=1;jettySize=auto;html=1;entryX=0.75;entryY=0;entryDx=0;entryDy=0;fillColor=#dae8fc;strokeColor=#6c8ebf;" edge="1" parent="1" source="yy6jho2rbqKbmonwyIIV-1" target="yy6jho2rbqKbmonwyIIV-2">
          <mxGeometry relative="1" as="geometry">
            <Array as="points">
              <mxPoint x="410" y="180" />
              <mxPoint x="410" y="180" />
            </Array>
          </mxGeometry>
        </mxCell>
        <mxCell id="yy6jho2rbqKbmonwyIIV-25" value="+5V" style="edgeLabel;html=1;align=center;verticalAlign=middle;resizable=0;points=[];" vertex="1" connectable="0" parent="yy6jho2rbqKbmonwyIIV-19">
          <mxGeometry x="-0.2667" y="3" relative="1" as="geometry">
            <mxPoint as="offset" />
          </mxGeometry>
        </mxCell>
        <mxCell id="yy6jho2rbqKbmonwyIIV-21" style="edgeStyle=orthogonalEdgeStyle;rounded=0;orthogonalLoop=1;jettySize=auto;html=1;entryX=0.669;entryY=0.008;entryDx=0;entryDy=0;entryPerimeter=0;fillColor=#dae8fc;strokeColor=#6c8ebf;" edge="1" parent="1" source="yy6jho2rbqKbmonwyIIV-1" target="yy6jho2rbqKbmonwyIIV-6">
          <mxGeometry relative="1" as="geometry">
            <Array as="points">
              <mxPoint x="400" y="60" />
              <mxPoint x="680" y="60" />
            </Array>
          </mxGeometry>
        </mxCell>
        <mxCell id="yy6jho2rbqKbmonwyIIV-22" value="+5V" style="edgeLabel;html=1;align=center;verticalAlign=middle;resizable=0;points=[];" vertex="1" connectable="0" parent="yy6jho2rbqKbmonwyIIV-21">
          <mxGeometry x="-0.0316" relative="1" as="geometry">
            <mxPoint as="offset" />
          </mxGeometry>
        </mxCell>
        <mxCell id="yy6jho2rbqKbmonwyIIV-23" style="edgeStyle=orthogonalEdgeStyle;rounded=0;orthogonalLoop=1;jettySize=auto;html=1;entryX=0.913;entryY=0.008;entryDx=0;entryDy=0;entryPerimeter=0;shape=link;" edge="1" parent="1" source="yy6jho2rbqKbmonwyIIV-1" target="yy6jho2rbqKbmonwyIIV-6">
          <mxGeometry relative="1" as="geometry">
            <Array as="points">
              <mxPoint x="340" y="40" />
              <mxPoint x="710" y="40" />
            </Array>
          </mxGeometry>
        </mxCell>
        <mxCell id="yy6jho2rbqKbmonwyIIV-24" value="GND" style="edgeLabel;html=1;align=center;verticalAlign=middle;resizable=0;points=[];" vertex="1" connectable="0" parent="yy6jho2rbqKbmonwyIIV-23">
          <mxGeometry x="0.2921" y="2" relative="1" as="geometry">
            <mxPoint as="offset" />
          </mxGeometry>
        </mxCell>
        <mxCell id="yy6jho2rbqKbmonwyIIV-1" value="&lt;div&gt;ARDUINO&lt;/div&gt;" style="rounded=0;whiteSpace=wrap;html=1;" vertex="1" parent="1">
          <mxGeometry x="320" y="80" width="120" height="60" as="geometry" />
        </mxCell>
        <mxCell id="yy6jho2rbqKbmonwyIIV-15" style="edgeStyle=orthogonalEdgeStyle;rounded=0;orthogonalLoop=1;jettySize=auto;html=1;fillColor=#f8cecc;strokeColor=#b85450;" edge="1" parent="1" source="yy6jho2rbqKbmonwyIIV-2" target="yy6jho2rbqKbmonwyIIV-16">
          <mxGeometry relative="1" as="geometry">
            <mxPoint x="440" y="480" as="targetPoint" />
          </mxGeometry>
        </mxCell>
        <mxCell id="yy6jho2rbqKbmonwyIIV-2" value="&lt;div&gt;Relay&lt;/div&gt;" style="rounded=0;whiteSpace=wrap;html=1;" vertex="1" parent="1">
          <mxGeometry x="320" y="280" width="120" height="60" as="geometry" />
        </mxCell>
        <mxCell id="yy6jho2rbqKbmonwyIIV-7" value="&lt;div&gt;HDMI&lt;/div&gt;" style="edgeStyle=orthogonalEdgeStyle;rounded=0;orthogonalLoop=1;jettySize=auto;html=1;" edge="1" parent="1" source="yy6jho2rbqKbmonwyIIV-3" target="yy6jho2rbqKbmonwyIIV-4">
          <mxGeometry relative="1" as="geometry" />
        </mxCell>
        <mxCell id="yy6jho2rbqKbmonwyIIV-8" style="edgeStyle=orthogonalEdgeStyle;rounded=0;orthogonalLoop=1;jettySize=auto;html=1;" edge="1" parent="1" source="yy6jho2rbqKbmonwyIIV-3" target="yy6jho2rbqKbmonwyIIV-1">
          <mxGeometry relative="1" as="geometry" />
        </mxCell>
        <mxCell id="yy6jho2rbqKbmonwyIIV-9" value="&lt;div&gt;USB B&lt;/div&gt;" style="edgeLabel;html=1;align=center;verticalAlign=middle;resizable=0;points=[];" vertex="1" connectable="0" parent="yy6jho2rbqKbmonwyIIV-8">
          <mxGeometry x="-0.3167" relative="1" as="geometry">
            <mxPoint as="offset" />
          </mxGeometry>
        </mxCell>
        <mxCell id="yy6jho2rbqKbmonwyIIV-3" value="&lt;div&gt;Raspberry Pi&lt;/div&gt;" style="rounded=0;whiteSpace=wrap;html=1;" vertex="1" parent="1">
          <mxGeometry x="80" y="80" width="120" height="60" as="geometry" />
        </mxCell>
        <mxCell id="yy6jho2rbqKbmonwyIIV-4" value="SERIAL MONITOR" style="shape=image;html=1;verticalAlign=top;verticalLabelPosition=bottom;labelBackgroundColor=#ffffff;imageAspect=0;aspect=fixed;image=https://cdn4.iconfinder.com/data/icons/essential-app-1/16/mobile-phone-smart-screen-128.png;rotation=90;" vertex="1" parent="1">
          <mxGeometry x="76" y="230" width="128" height="128" as="geometry" />
        </mxCell>
        <mxCell id="yy6jho2rbqKbmonwyIIV-12" value="PINS 12, 13" style="edgeStyle=orthogonalEdgeStyle;rounded=0;orthogonalLoop=1;jettySize=auto;html=1;entryX=1;entryY=0.5;entryDx=0;entryDy=0;fillColor=#d5e8d4;strokeColor=#82b366;" edge="1" parent="1" source="yy6jho2rbqKbmonwyIIV-6" target="yy6jho2rbqKbmonwyIIV-1">
          <mxGeometry x="0.375" relative="1" as="geometry">
            <mxPoint as="offset" />
          </mxGeometry>
        </mxCell>
        <mxCell id="yy6jho2rbqKbmonwyIIV-6" value="&lt;div&gt;Sensor&lt;/div&gt;" style="rounded=0;whiteSpace=wrap;html=1;" vertex="1" parent="1">
          <mxGeometry x="600" y="80" width="120" height="60" as="geometry" />
        </mxCell>
        <mxCell id="yy6jho2rbqKbmonwyIIV-14" style="edgeStyle=orthogonalEdgeStyle;rounded=0;orthogonalLoop=1;jettySize=auto;html=1;entryX=0.25;entryY=1;entryDx=0;entryDy=0;fillColor=#f8cecc;strokeColor=#b85450;" edge="1" parent="1" source="yy6jho2rbqKbmonwyIIV-13" target="yy6jho2rbqKbmonwyIIV-2">
          <mxGeometry relative="1" as="geometry">
            <Array as="points">
              <mxPoint x="350" y="450" />
            </Array>
          </mxGeometry>
        </mxCell>
        <mxCell id="yy6jho2rbqKbmonwyIIV-29" value="+" style="edgeLabel;html=1;align=center;verticalAlign=middle;resizable=0;points=[];" vertex="1" connectable="0" parent="yy6jho2rbqKbmonwyIIV-14">
          <mxGeometry x="-0.42" y="-2" relative="1" as="geometry">
            <mxPoint x="-27" as="offset" />
          </mxGeometry>
        </mxCell>
        <mxCell id="yy6jho2rbqKbmonwyIIV-28" style="edgeStyle=orthogonalEdgeStyle;rounded=0;orthogonalLoop=1;jettySize=auto;html=1;entryX=0;entryY=0.75;entryDx=0;entryDy=0;shape=link;" edge="1" parent="1" source="yy6jho2rbqKbmonwyIIV-13" target="yy6jho2rbqKbmonwyIIV-27">
          <mxGeometry relative="1" as="geometry">
            <Array as="points">
              <mxPoint x="270" y="480" />
              <mxPoint x="270" y="555" />
            </Array>
          </mxGeometry>
        </mxCell>
        <mxCell id="yy6jho2rbqKbmonwyIIV-30" value="GND" style="edgeLabel;html=1;align=center;verticalAlign=middle;resizable=0;points=[];" vertex="1" connectable="0" parent="yy6jho2rbqKbmonwyIIV-28">
          <mxGeometry x="-0.6079" y="2" relative="1" as="geometry">
            <mxPoint as="offset" />
          </mxGeometry>
        </mxCell>
        <mxCell id="yy6jho2rbqKbmonwyIIV-13" value="V+" style="rounded=0;whiteSpace=wrap;html=1;" vertex="1" parent="1">
          <mxGeometry x="40" y="430" width="120" height="60" as="geometry" />
        </mxCell>
        <mxCell id="yy6jho2rbqKbmonwyIIV-31" style="edgeStyle=orthogonalEdgeStyle;rounded=0;orthogonalLoop=1;jettySize=auto;html=1;entryX=1;entryY=0.5;entryDx=0;entryDy=0;entryPerimeter=0;fillColor=#f8cecc;strokeColor=#b85450;" edge="1" parent="1" source="yy6jho2rbqKbmonwyIIV-16" target="yy6jho2rbqKbmonwyIIV-26">
          <mxGeometry relative="1" as="geometry" />
        </mxCell>
        <mxCell id="yy6jho2rbqKbmonwyIIV-16" value="WAGO to drain" style="rounded=0;whiteSpace=wrap;html=1;" vertex="1" parent="1">
          <mxGeometry x="380" y="430" width="120" height="60" as="geometry" />
        </mxCell>
        <mxCell id="yy6jho2rbqKbmonwyIIV-26" value="&lt;div&gt;Motor&lt;/div&gt;" style="shape=cylinder3;whiteSpace=wrap;html=1;boundedLbl=1;backgroundOutline=1;size=15;" vertex="1" parent="1">
          <mxGeometry x="600" y="500" width="60" height="80" as="geometry" />
        </mxCell>
        <mxCell id="yy6jho2rbqKbmonwyIIV-32" style="edgeStyle=orthogonalEdgeStyle;rounded=0;orthogonalLoop=1;jettySize=auto;html=1;entryX=0;entryY=0.5;entryDx=0;entryDy=0;entryPerimeter=0;shape=link;" edge="1" parent="1" source="yy6jho2rbqKbmonwyIIV-27" target="yy6jho2rbqKbmonwyIIV-26">
          <mxGeometry relative="1" as="geometry" />
        </mxCell>
        <mxCell id="yy6jho2rbqKbmonwyIIV-27" value="WAGO to drain" style="rounded=0;whiteSpace=wrap;html=1;" vertex="1" parent="1">
          <mxGeometry x="380" y="510" width="120" height="60" as="geometry" />
        </mxCell>
      </root>
    </mxGraphModel>
  </diagram>
</mxfile>
